<svg xmlns="http://www.w3.org/2000/svg" width="74" height="29"><path fill="#0c2f75" d="M59.5 29C67.508 29 74 22.508 74 14.5S67.508 0 59.5 0 45 6.492 45 14.5 51.492 29 59.5 29zm-19-8a1.5 1.5 0 100-3 1.5 1.5 0 000 3zM33.823 8.323h3.428v12.775H34.09l-5.222-7.006.042 6.906h-3.437V8.24h3.171l5.18 7.413zm-15.465 12.99c-3.303 0-5.578-2.166-5.578-5.295V8.323h3.437v7.703c0 1.287.888 2.175 2.141 2.175 1.262 0 2.15-.888 2.15-2.167V8.323h3.437v7.695c0 3.13-2.275 5.296-5.587 5.296zm-10.882-6.78l4.972 6.466H8.13l-3.7-5.164h-.132v5.163H.86V8.323h3.437v5.28h.09l3.495-5.28h3.968z"/><path fill="#fff" d="M71.209 20.995v-3.063h-4.89l5.263-9.612h-9.927v3.055h4.291l-5.288 9.62zm-11.314-4.98V8.32h-3.437v7.711c0 1.279-.888 2.167-2.15 2.167-1.253 0-2.141-.888-2.141-2.175V8.32H48.73v7.695c0 3.13 2.274 5.296 5.578 5.296 3.312 0 5.587-2.167 5.587-5.296z"/></svg>